<?xml version="1.0" encoding="UTF-8" standalone="no"?>
<svg
   xmlns:dc="http://purl.org/dc/elements/1.1/"
   xmlns:cc="http://creativecommons.org/ns#"
   xmlns:rdf="http://www.w3.org/1999/02/22-rdf-syntax-ns#"
   xmlns:svg="http://www.w3.org/2000/svg"
   xmlns="http://www.w3.org/2000/svg"
   xmlns:sodipodi="http://sodipodi.sourceforge.net/DTD/sodipodi-0.dtd"
   xmlns:inkscape="http://www.inkscape.org/namespaces/inkscape"
   width="43.75mm"
   height="14.441mm"
   version="1.1"
   viewBox="0 0 43.75 14.441"
   id="svg70"
   sodipodi:docname="johaku-logo.svg"
   inkscape:version="1.0.1 (3bc2e813f5, 2020-09-07)">
  <sodipodi:namedview
     pagecolor="#ffffff"
     bordercolor="#666666"
     borderopacity="1"
     objecttolerance="10"
     gridtolerance="10"
     guidetolerance="10"
     inkscape:pageopacity="0"
     inkscape:pageshadow="2"
     inkscape:window-width="1920"
     inkscape:window-height="1057"
     id="namedview25"
     showgrid="false"
     showguides="true"
     inkscape:guide-bbox="true"
     inkscape:zoom="6.301619"
     inkscape:cx="79.342241"
     inkscape:cy="4.1951741"
     inkscape:window-x="-8"
     inkscape:window-y="-8"
     inkscape:window-maximized="1"
     inkscape:current-layer="g66">
    <sodipodi:guide
       position="22.00096,1.6770845"
       orientation="0,-1"
       id="guide216" />
    <sodipodi:guide
       position="43.372123,2.2648963"
       orientation="1,0"
       id="guide229" />
  </sodipodi:namedview>
  <metadata
     id="metadata76">
    <rdf:RDF>
      <cc:Work
         rdf:about="">
        <dc:format>image/svg+xml</dc:format>
        <dc:type
           rdf:resource="http://purl.org/dc/dcmitype/StillImage" />
        <dc:title>johaky-logo</dc:title>
      </cc:Work>
    </rdf:RDF>
  </metadata>
  <defs
     id="defs74">
    <clipPath
       clipPathUnits="userSpaceOnUse"
       id="clipEmfPath1">
      <path
         d="M 0,-1.8663336 L 601.75928,-1.8663336 L 601.75928,43.192292 L 0,43.192292 z"
         id="path53" />
    </clipPath>
    <pattern
       id="EMFhbasepattern"
       patternUnits="userSpaceOnUse"
       width="6"
       height="6"
       x="0"
       y="0" />
    <clipPath
       clipPathUnits="userSpaceOnUse"
       id="clipEmfPath1-6">
      <path
         d="M 0,-7.9985726 L 601.75928,-7.9985726 L 601.75928,75.719821 L 0,75.719821 z"
         id="path87" />
    </clipPath>
    <pattern
       id="EMFhbasepattern-5"
       patternUnits="userSpaceOnUse"
       width="6"
       height="6"
       x="0"
       y="0" />
  </defs>
  <title
     id="title44">johaky-logo</title>
  <g
     transform="matrix(0.99376176,0,0,0.97627066,-99.522195,-53.097929)"
     font-family="jura"
     image-rendering="auto"
     stroke-width="0.26458"
     id="g66">
    <text
       x="164.04167"
       y="115.66071"
       font-size="10.583px"
       style="line-height:1.25"
       xml:space="preserve"
       id="text48"><tspan
         x="164.04167"
         y="115.66071"
         stroke-width="0.26458"
         id="tspan46" /></text>
    <text
       x="141.92012"
       y="63.297081"
       font-size="10.583px"
       style="line-height:1.25"
       xml:space="preserve"
       id="text52"><tspan
         x="141.92012"
         y="63.297081"
         stroke-width="0.26458"
         id="tspan50" /></text>
    <text
       xml:space="preserve"
       style="font-size:10.7447px;line-height:1.25;font-family:jura;-inkscape-font-specification:jura;stroke-width:0.0710711"
       x="119.71069"
       y="68.017281"
       id="text49"
       transform="scale(0.99116047,1.0089184)"><tspan
         sodipodi:role="line"
         id="tspan47"
         x="119.71069"
         y="68.017281"
         style="stroke-width:0.0710711"></tspan></text>
    <text
       xml:space="preserve"
       style="font-size:10.7447px;line-height:1.25;font-family:jura;-inkscape-font-specification:jura;stroke-width:0.0710711"
       x="94.006645"
       y="50.369728"
       id="text85"
       transform="scale(0.99116047,1.0089184)"><tspan
         sodipodi:role="line"
         id="tspan83"
         x="94.006645"
         y="50.369728"
         style="stroke-width:0.0710711" /></text>
    <g
       aria-label="Jo-ha-kū"
       id="text58"
       style="font-size:10.583px;line-height:1.25;text-align:end;text-anchor:end">
      <path
         d="m 102.65071,60.747635 c -1.21952,0 -1.7156,-0.113684 -1.7156,-1.322875 0,-0.206699 -0.10335,-0.341054 -0.25837,-0.341054 -0.18603,0 -0.28938,0.12402 -0.28938,0.341054 0,1.601919 0.87847,1.860293 2.26335,1.860293 1.38489,0 2.25302,-0.258374 2.25302,-1.829288 v -4.557718 c 0,-0.299714 -0.16536,-0.341053 -0.2687,-0.341053 -0.10335,0 -0.26871,0.04134 -0.26871,0.330718 v 4.557718 c 0,1.188521 -0.51675,1.302205 -1.71561,1.302205 z"
         style="text-align:end"
         id="path91" />
      <path
         d="m 108.98604,61.202374 c 1.42623,0 2.29436,-0.268709 2.29436,-1.818954 v -1.12651 c 0,-1.550245 -0.86813,-1.818954 -2.29436,-1.818954 h -0.29971 c -1.43656,0 -2.3047,0.268709 -2.3047,1.818954 v 1.12651 c 0,1.550245 0.86814,1.818954 2.3047,1.818954 z m -0.29971,-0.537418 c -1.25053,0 -1.76728,-0.10335 -1.76728,-1.291871 v -1.10584 c 0,-1.188521 0.51675,-1.291871 1.76728,-1.291871 h 0.29971 c 1.2402,0 1.75695,0.10335 1.75695,1.291871 v 1.10584 c 0,1.188521 -0.51675,1.291871 -1.75695,1.291871 z"
         style="text-align:end"
         id="path93" />
      <path
         d="m 112.67562,58.814997 c 0,0.14469 0.0827,0.279044 0.32039,0.279044 h 2.53206 c 0.2067,0 0.35139,-0.103349 0.35139,-0.258374 0,-0.186029 -0.13435,-0.289379 -0.35139,-0.289379 h -2.53206 c -0.26871,0 -0.32039,0.16536 -0.32039,0.268709 z"
         style="text-align:end"
         id="path95" />
      <path
         d="m 119.71373,56.975374 h 0.29972 c 1.24019,0 1.75694,0.10335 1.75694,1.291871 v 2.656085 c 0,0.310048 0.16536,0.351388 0.27905,0.351388 0.20669,0 0.25837,-0.155024 0.25837,-0.351388 v -2.66642 c 0,-1.550245 -0.86814,-1.818954 -2.29436,-1.818954 h -0.29972 c -0.71311,0 -1.35388,0.2067 -1.76727,0.651103 v -2.160007 c 0,-0.206699 -0.062,-0.372058 -0.28938,-0.372058 -0.19637,0 -0.24804,0.165359 -0.24804,0.372058 v 5.994278 c 0,0.186029 0.0517,0.351388 0.26871,0.351388 0.19636,0 0.26871,-0.124019 0.26871,-0.351388 v -2.108333 c 0,-1.18852 0.58909,-1.839623 1.76727,-1.839623 z"
         style="text-align:end"
         id="path97" />
      <path
         d="m 125.95605,58.690978 h 1.51924 v 0.155024 c 0,1.167851 -0.58909,1.818954 -1.75694,1.818954 h -0.96116 c -0.27904,0 -0.56842,-0.320384 -0.56842,-0.682108 0,-1.18852 0.51675,-1.29187 1.76728,-1.29187 z m 0,-0.537418 c -1.42622,0 -2.3047,0.289379 -2.3047,1.777613 0,0.785457 0.47541,1.271201 1.10584,1.271201 h 0.96116 c 0.70277,0 1.35388,-0.2067 1.75694,-0.651103 v 0.361724 c 0,0.186029 0.0517,0.361723 0.26871,0.361723 0.21703,0 0.26871,-0.165359 0.26871,-0.351388 v -3.183168 c 0,-0.930147 -0.2067,-1.302206 -1.0335,-1.302206 h -1.60192 c -0.96115,0 -1.72594,0.320384 -1.72594,1.157516 0,0.258374 0.10335,0.361724 0.25838,0.361724 0.22737,0 0.27904,-0.14469 0.27904,-0.361724 0,-0.465073 0.50642,-0.620098 1.26087,-0.620098 h 1.45723 c 0.45474,0 0.56842,0.175695 0.56842,0.589093 v 0.589093 z"
         style="text-align:end"
         id="path99" />
      <path
         d="m 129.51128,58.814997 c 0,0.14469 0.0827,0.279044 0.32038,0.279044 h 2.53207 c 0.2067,0 0.35139,-0.103349 0.35139,-0.258374 0,-0.186029 -0.13436,-0.289379 -0.35139,-0.289379 h -2.53207 c -0.26871,0 -0.32038,0.16536 -0.32038,0.268709 z"
         style="text-align:end"
         id="path101" />
      <path
         d="m 138.03762,61.006009 c 0,-0.07234 -0.0413,-0.165359 -0.11368,-0.248039 l -2.47006,-2.294361 1.7156,-1.570914 c 0.0517,-0.05168 0.12402,-0.14469 0.12402,-0.237704 0,-0.16536 -0.14469,-0.268709 -0.25837,-0.268709 -0.0517,0 -0.13436,0.02067 -0.24804,0.124019 l -2.00498,1.911968 v -3.524222 c 0,-0.299714 -0.16536,-0.341053 -0.26871,-0.341053 -0.10335,0 -0.26871,0.04134 -0.26871,0.341053 v 6.056287 c 0,0.268709 0.15502,0.320384 0.25837,0.320384 0.22737,0 0.27905,-0.175694 0.27905,-0.330719 v -1.870627 l 0.29971,-0.299714 2.44939,2.366706 c 0.062,0.05168 0.15502,0.124019 0.25837,0.124019 0.14469,0 0.24804,-0.144689 0.24804,-0.258374 z"
         style="text-align:end"
         id="path103" />
      <path
         d="m 139.72222,55.456135 c 0,0.14469 0.0827,0.279044 0.32038,0.279044 h 2.53207 c 0.2067,0 0.35139,-0.10335 0.35139,-0.258374 0,-0.186029 -0.13436,-0.289379 -0.35139,-0.289379 h -2.53207 c -0.26871,0 -0.32038,0.16536 -0.32038,0.268709 z m 1.75694,5.208821 h -0.29971 c -1.2402,0 -1.75694,-0.10335 -1.75694,-1.291871 V 56.717 c 0,-0.310048 -0.16536,-0.351388 -0.27905,-0.351388 -0.2067,0 -0.25837,0.155024 -0.25837,0.351388 v 2.66642 c 0,1.550245 0.86813,1.818954 2.29436,1.818954 h 0.29971 c 0.71312,0 1.35388,-0.2067 1.76728,-0.651103 v 0.351389 c 0,0.206699 0.062,0.372058 0.28938,0.372058 0.19636,0 0.24804,-0.155024 0.24804,-0.361723 V 56.717 c 0,-0.186029 -0.0517,-0.351388 -0.26871,-0.351388 -0.19636,0 -0.26871,0.124019 -0.26871,0.351388 v 2.108332 c 0,1.188521 -0.58909,1.839624 -1.76728,1.839624 z"
         style="text-align:end"
         id="path105" />
    </g>
    <g
       id="g227"
       transform="matrix(1.1392327,0,0,1.1392327,-17.261883,-8.7869831)">
      <path
         d="m 114.07774,63.960679 h -3.27671 v 0.833687 q 0,1.834114 -0.53066,2.708296 l -0.41633,-0.288219 q 0.15963,-0.35253 0.26749,-0.924201 0.10786,-0.571673 0.10786,-1.376777 v -1.395832 h 1.71062 v -0.352531 h 0.59537 v 0.352531 h 1.54236 z m -1.39999,3.103701 q 0,0.173883 -0.16394,0.295363 -0.16395,0.123863 -0.37535,0.123863 h -0.69244 l -0.0625,-0.566908 h 0.57811 q 0.13374,0 0.13374,-0.121481 v -0.907528 h -1.19721 V 65.40415 h 1.30939 q -0.31926,-0.18103 -0.83266,-0.433517 l 0.29553,-0.354914 q 0.29337,0.123863 0.70539,0.328712 0.29552,-0.164356 0.51771,-0.333475 h -1.88966 v -0.409699 h 2.53465 l 0.24807,0.307274 q -0.28905,0.300128 -0.97287,0.664568 0.0604,0.03334 0.11649,0.07146 l -0.19847,0.159592 h 1.14761 l 0.25239,0.352531 q -0.11864,0.183411 -0.43144,0.462101 -0.31062,0.276308 -0.61262,0.469248 l -0.29985,-0.340622 q 0.27612,-0.183411 0.52634,-0.459719 h -0.63636 z"
         style="font-style:normal;font-variant:normal;font-weight:700;font-size:4.64235px;line-height:125%;font-family:Meiryo;text-align:start;letter-spacing:0px;word-spacing:0px;text-anchor:start;fill:#ff0000;fill-opacity:1;stroke:none;stroke-width:0.0682373"
         id="path146" />
      <path
         d="m 115.97134,65.377686 q 0,0.202466 -0.12942,0.345385 -0.12943,0.142917 -0.3128,0.142917 -0.18335,0 -0.31278,-0.142917 -0.12942,-0.142919 -0.12942,-0.345385 0,-0.202468 0.12942,-0.345386 0.12943,-0.142918 0.31278,-0.142918 0.18337,0 0.3128,0.142918 0.12942,0.142918 0.12942,0.345386 z"
         style="font-style:normal;font-variant:normal;font-weight:700;font-size:4.64235px;line-height:125%;font-family:Meiryo;text-align:start;letter-spacing:0px;word-spacing:0px;text-anchor:start;fill:#ff0000;fill-opacity:1;stroke:none;stroke-width:0.0682373"
         id="path148" />
      <path
         d="m 121.08785,64.987828 q -0.17473,0.936112 -0.57164,1.507785 0.3322,0.262016 0.73343,0.428753 l -0.32573,0.538324 q -0.40123,-0.190557 -0.78305,-0.564526 -0.36024,0.350149 -0.91032,0.559762 l -0.20276,-0.478774 q 0.41848,-0.152447 0.76578,-0.483539 -0.34083,-0.490685 -0.47241,-1.145726 h -0.0388 q -0.0151,1.279115 -0.50261,2.096129 l -0.3624,-0.316801 q 0.12295,-0.221523 0.20925,-0.552616 0.0863,-0.331093 0.11864,-0.664569 0.0345,-0.335857 0.0345,-0.802722 v -1.424415 h 0.87149 v -0.531178 h 0.55223 v 0.531178 h 0.86933 l 0.1057,0.119099 -0.26101,0.931348 h -0.453 l 0.13158,-0.566908 h -0.3926 v 0.67886 h 0.77657 z m -1.80338,-0.140536 h 0.36672 v -0.67886 h -0.36672 z m 0.85639,1.243386 q 0.23945,-0.364441 0.31926,-0.740791 h -0.65578 q 0.10786,0.433518 0.33652,0.740791 z m -1.6157,0.786048 h -0.69029 v 0.288219 h -0.4681 v -1.298171 q -0.0647,0.121479 -0.13159,0.223904 l -0.31494,-0.316801 q 0.47673,-0.84798 0.60184,-1.917482 h -0.4681 v -0.493067 h 1.56825 v 0.493067 h -0.56086 q -0.0453,0.397788 -0.1359,0.745555 h 0.59969 z M 118.07,66.417007 v -1.350574 h -0.23513 v 1.350574 z"
         style="font-style:normal;font-variant:normal;font-weight:700;font-size:4.64235px;line-height:125%;font-family:Meiryo;text-align:start;letter-spacing:0px;word-spacing:0px;text-anchor:start;fill:#ff0000;fill-opacity:1;stroke:none;stroke-width:0.0682373"
         id="path150" />
      <path
         d="m 123.13101,65.334679 q 0,0.202466 -0.12942,0.345385 -0.12944,0.142917 -0.3128,0.142917 -0.18335,0 -0.31278,-0.142917 -0.12943,-0.142919 -0.12943,-0.345385 0,-0.202468 0.12943,-0.345386 0.12943,-0.142918 0.31278,-0.142918 0.18336,0 0.3128,0.142918 0.12942,0.142918 0.12942,0.345386 z"
         style="font-style:normal;font-variant:normal;font-weight:700;font-size:4.64235px;line-height:125%;font-family:Meiryo;text-align:start;letter-spacing:0px;word-spacing:0px;text-anchor:start;fill:#ff0000;fill-opacity:1;stroke:none;stroke-width:0.0682373"
         id="path152" />
      <path
         d="m 126.34083,66.53532 -0.41632,0.278689 q -0.0906,-0.173883 -0.42496,-0.624074 l 0.26317,-0.152447 h -1.54452 v -0.443045 h 2.88196 v -0.288218 h -2.84529 V 64.92511 h 2.84529 v -0.266779 h -2.62525 v -0.0786 q -0.18121,0.123863 -0.42281,0.269163 l -0.302,-0.450191 q 0.2718,-0.135772 0.69676,-0.504977 0.42712,-0.371587 0.67303,-0.783667 l 0.60616,0.171501 q -0.0841,0.128627 -0.12943,0.195322 h 1.26409 l 0.16825,0.152445 q -0.0992,0.178648 -0.43573,0.578818 h 1.1023 v 1.829349 h -1.73219 z m -1.07426,-2.634455 q -0.14237,0.159592 -0.31062,0.307274 h 1.0268 q 0.11648,-0.154827 0.2114,-0.307274 z m 2.77841,3.346662 -0.55654,0.185793 q -0.42711,-0.964696 -0.52635,-1.107613 l 0.51341,-0.20485 q 0.0928,0.121481 0.28258,0.504977 0.19199,0.383496 0.2869,0.621693 z m -1.05484,-0.214377 q 0,0.159592 -0.12512,0.27869 -0.12511,0.119098 -0.36671,0.140536 -0.23944,0.02382 -0.59969,0.02382 -0.26964,0 -0.54792,-0.01905 -0.27827,-0.01668 -0.37103,-0.08337 -0.0928,-0.06431 -0.13158,-0.152447 -0.0366,-0.09052 -0.0366,-0.211995 v -0.838451 h 0.56949 v 0.671714 q 0,0.05479 0.0237,0.08813 0.0259,0.03097 0.0669,0.03573 0.041,0.0047 0.22219,0.01905 0.18336,0.01429 0.24807,0.01429 0.0992,0 0.26318,-0.01668 0.16394,-0.01905 0.21139,-0.04526 0.0496,-0.0262 0.069,-0.09289 0.0216,-0.06669 0.0216,-0.421608 l 0.48321,0.0929 z m -2.30168,-0.683625 q -0.12727,0.681243 -0.36672,1.131434 l -0.53929,-0.150063 q 0.21788,-0.466866 0.36672,-1.057593 z"
         style="font-style:normal;font-variant:normal;font-weight:700;font-size:4.64235px;line-height:125%;font-family:Meiryo;text-align:start;letter-spacing:0px;word-spacing:0px;text-anchor:start;fill:#ff0000;fill-opacity:1;stroke:none;stroke-width:0.0682373"
         id="path154" />
      <g
         id="g214"
         transform="translate(-2.4505076,0.05080677)">
        <path
           d="m 135.30373,63.562628 q -0.0281,0.197703 -0.2265,0.635984 -0.19631,0.435899 -0.59754,0.862272 -0.39907,0.423989 -0.77225,0.652658 l -0.33436,-0.493066 q 0.32573,-0.20485 0.6191,-0.54547 0.29337,-0.340622 0.45732,-0.678861 h -3.11493 v -0.614547 h 3.77285 z m -1.91771,0.657422 v 0.116716 q 0,0.488303 -0.0172,0.81225 -0.0151,0.321566 -0.11864,0.686007 -0.10139,0.362058 -0.32573,0.676477 -0.22219,0.31442 -0.55439,0.540707 -0.33221,0.223904 -0.77441,0.359676 l -0.23298,-0.576435 q 0.80031,-0.273927 1.08505,-0.778902 0.28474,-0.504977 0.28474,-1.379159 l -0.005,-0.457337 z"
           style="font-style:normal;font-variant:normal;font-weight:700;font-size:4.64235px;line-height:125%;font-family:Meiryo;text-align:start;letter-spacing:0px;word-spacing:0px;text-anchor:start;fill:#ff0000;fill-opacity:1;stroke:none;stroke-width:0.0682373"
           id="path156" />
        <path
           d="m 139.63529,65.658757 h -3.96269 v -0.633603 h 3.96269 z"
           style="font-style:normal;font-variant:normal;font-weight:700;font-size:4.64235px;line-height:125%;font-family:Meiryo;text-align:start;letter-spacing:0px;word-spacing:0px;text-anchor:start;fill:#ff0000;fill-opacity:1;stroke:none;stroke-width:0.0682373"
           id="path158" />
        <path
           d="m 142.47841,65.182364 -0.63636,0.24296 q -0.21571,-0.852744 -0.67734,-1.848405 l 0.56948,-0.252488 q 0.18983,0.381114 0.33651,0.738409 0.14885,0.357295 0.40771,1.119524 z m -1.17565,0.273926 -0.64498,0.228668 q -0.22219,-0.869417 -0.67735,-1.843641 l 0.58459,-0.250106 q 0.39044,0.790813 0.73774,1.865079 z m 2.53034,-1.888899 q -0.13374,1.772182 -0.90385,2.717823 -0.7701,0.943258 -2.22834,1.160017 l -0.17688,-0.609783 q 1.29861,-0.209613 1.91987,-1.007571 0.62126,-0.797959 0.73127,-2.334327 z"
           style="font-style:normal;font-variant:normal;font-weight:700;font-size:4.64235px;line-height:125%;font-family:Meiryo;text-align:start;letter-spacing:0px;word-spacing:0px;text-anchor:start;fill:#ff0000;fill-opacity:1;stroke:none;stroke-width:0.0682373"
           id="path160" />
      </g>
    </g>
    <text
       xml:space="preserve"
       style="font-style:normal;font-variant:normal;font-weight:400;font-size:3.94534px;line-height:125%;font-family:Calibri;text-align:start;letter-spacing:0px;word-spacing:0px;text-anchor:start;fill:#000000;fill-opacity:1;stroke:none;stroke-width:0.0710711"
       transform="scale(0.99116046,1.0089184)"
       x="154.67052"
       y="69.490456"
       id="text105"><tspan
         sodipodi:role="line"
         x="154.67052"
         y="69.490456"
         id="tspan103"
         style="stroke-width:0.0710711"><tspan
           dx="0"
           dy="0"
           style="font-style:normal;font-variant:normal;font-weight:400;font-size:3.94534px;font-family:Calibri;fill:#000000;stroke-width:0.0710711"
           id="tspan101"> </tspan></tspan></text>
    <text
       xml:space="preserve"
       style="font-size:10.7447px;line-height:1.25;font-family:jura;-inkscape-font-specification:jura;stroke-width:0.0710711"
       x="92.131058"
       y="46.448051"
       id="text125"
       transform="scale(0.99116047,1.0089184)"><tspan
         sodipodi:role="line"
         id="tspan123"
         x="92.131058"
         y="46.448051"
         style="stroke-width:0.0710711" /></text>
    <text
       xml:space="preserve"
       style="font-size:10.7447px;line-height:1.25;font-family:jura;-inkscape-font-specification:jura;stroke-width:0.0710711"
       x="90.980133"
       y="52.373196"
       id="text129"
       transform="scale(0.99116047,1.0089184)"><tspan
         sodipodi:role="line"
         id="tspan127"
         x="90.980133"
         y="52.373196"
         style="stroke-width:0.0710711" /></text>
  </g>
</svg>
