<?xml version="1.0" encoding="UTF-8" standalone="no"?>
<svg
   xmlns:dc="http://purl.org/dc/elements/1.1/"
   xmlns:cc="http://creativecommons.org/ns#"
   xmlns:rdf="http://www.w3.org/1999/02/22-rdf-syntax-ns#"
   xmlns:svg="http://www.w3.org/2000/svg"
   xmlns="http://www.w3.org/2000/svg"
   width="43.75mm"
   height="14.441mm"
   version="1.1"
   viewBox="0 0 43.75 14.441"
   id="svg70">
  <metadata
     id="metadata76">
    <rdf:RDF>
      <cc:Work
         rdf:about="">
        <dc:format>image/svg+xml</dc:format>
        <dc:type
           rdf:resource="http://purl.org/dc/dcmitype/StillImage" />
        <dc:title>johaky-logo</dc:title>
      </cc:Work>
    </rdf:RDF>
  </metadata>
  <defs
     id="defs74" />
  <title
     id="title44">johaky-logo</title>
  <g
     transform="matrix(0.99376176,0,0,0.97627066,-99.522195,-53.097929)"
     font-family="jura"
     image-rendering="auto"
     stroke-width="0.26458"
     id="g66">
    <text
       x="164.04167"
       y="115.66071"
       font-size="10.583px"
       style="line-height:1.25"
       xml:space="preserve"
       id="text48"><tspan
         x="164.04167"
         y="115.66071"
         stroke-width="0.26458"
         id="tspan46" /></text>
    <text
       x="141.92012"
       y="63.297081"
       font-size="10.583px"
       style="line-height:1.25"
       xml:space="preserve"
       id="text52"><tspan
         x="141.92012"
         y="63.297081"
         stroke-width="0.26458"
         id="tspan50" /></text>
    <g
       id="g64">
      <g
         aria-label="Jo-ha-kū"
         id="text58"
         style="font-size:10.583px;line-height:1.25;text-align:end;text-anchor:end">
        <path
           d="m 102.65071,60.747635 c -1.21952,0 -1.7156,-0.113684 -1.7156,-1.322875 0,-0.206699 -0.10335,-0.341054 -0.25837,-0.341054 -0.18603,0 -0.28938,0.12402 -0.28938,0.341054 0,1.601919 0.87847,1.860293 2.26335,1.860293 1.38489,0 2.25302,-0.258374 2.25302,-1.829288 v -4.557718 c 0,-0.299714 -0.16536,-0.341053 -0.2687,-0.341053 -0.10335,0 -0.26871,0.04134 -0.26871,0.330718 v 4.557718 c 0,1.188521 -0.51675,1.302205 -1.71561,1.302205 z"
           style="text-align:end"
           id="path91" />
        <path
           d="m 108.98604,61.202374 c 1.42623,0 2.29436,-0.268709 2.29436,-1.818954 v -1.12651 c 0,-1.550245 -0.86813,-1.818954 -2.29436,-1.818954 h -0.29971 c -1.43656,0 -2.3047,0.268709 -2.3047,1.818954 v 1.12651 c 0,1.550245 0.86814,1.818954 2.3047,1.818954 z m -0.29971,-0.537418 c -1.25053,0 -1.76728,-0.10335 -1.76728,-1.291871 v -1.10584 c 0,-1.188521 0.51675,-1.291871 1.76728,-1.291871 h 0.29971 c 1.2402,0 1.75695,0.10335 1.75695,1.291871 v 1.10584 c 0,1.188521 -0.51675,1.291871 -1.75695,1.291871 z"
           style="text-align:end"
           id="path93" />
        <path
           d="m 112.67562,58.814997 c 0,0.14469 0.0827,0.279044 0.32039,0.279044 h 2.53206 c 0.2067,0 0.35139,-0.103349 0.35139,-0.258374 0,-0.186029 -0.13435,-0.289379 -0.35139,-0.289379 h -2.53206 c -0.26871,0 -0.32039,0.16536 -0.32039,0.268709 z"
           style="text-align:end"
           id="path95" />
        <path
           d="m 119.71373,56.975374 h 0.29972 c 1.24019,0 1.75694,0.10335 1.75694,1.291871 v 2.656085 c 0,0.310048 0.16536,0.351388 0.27905,0.351388 0.20669,0 0.25837,-0.155024 0.25837,-0.351388 v -2.66642 c 0,-1.550245 -0.86814,-1.818954 -2.29436,-1.818954 h -0.29972 c -0.71311,0 -1.35388,0.2067 -1.76727,0.651103 v -2.160007 c 0,-0.206699 -0.062,-0.372058 -0.28938,-0.372058 -0.19637,0 -0.24804,0.165359 -0.24804,0.372058 v 5.994278 c 0,0.186029 0.0517,0.351388 0.26871,0.351388 0.19636,0 0.26871,-0.124019 0.26871,-0.351388 v -2.108333 c 0,-1.18852 0.58909,-1.839623 1.76727,-1.839623 z"
           style="text-align:end"
           id="path97" />
        <path
           d="m 125.95605,58.690978 h 1.51924 v 0.155024 c 0,1.167851 -0.58909,1.818954 -1.75694,1.818954 h -0.96116 c -0.27904,0 -0.56842,-0.320384 -0.56842,-0.682108 0,-1.18852 0.51675,-1.29187 1.76728,-1.29187 z m 0,-0.537418 c -1.42622,0 -2.3047,0.289379 -2.3047,1.777613 0,0.785457 0.47541,1.271201 1.10584,1.271201 h 0.96116 c 0.70277,0 1.35388,-0.2067 1.75694,-0.651103 v 0.361724 c 0,0.186029 0.0517,0.361723 0.26871,0.361723 0.21703,0 0.26871,-0.165359 0.26871,-0.351388 v -3.183168 c 0,-0.930147 -0.2067,-1.302206 -1.0335,-1.302206 h -1.60192 c -0.96115,0 -1.72594,0.320384 -1.72594,1.157516 0,0.258374 0.10335,0.361724 0.25838,0.361724 0.22737,0 0.27904,-0.14469 0.27904,-0.361724 0,-0.465073 0.50642,-0.620098 1.26087,-0.620098 h 1.45723 c 0.45474,0 0.56842,0.175695 0.56842,0.589093 v 0.589093 z"
           style="text-align:end"
           id="path99" />
        <path
           d="m 129.51128,58.814997 c 0,0.14469 0.0827,0.279044 0.32038,0.279044 h 2.53207 c 0.2067,0 0.35139,-0.103349 0.35139,-0.258374 0,-0.186029 -0.13436,-0.289379 -0.35139,-0.289379 h -2.53207 c -0.26871,0 -0.32038,0.16536 -0.32038,0.268709 z"
           style="text-align:end"
           id="path101" />
        <path
           d="m 138.03762,61.006009 c 0,-0.07234 -0.0413,-0.165359 -0.11368,-0.248039 l -2.47006,-2.294361 1.7156,-1.570914 c 0.0517,-0.05168 0.12402,-0.14469 0.12402,-0.237704 0,-0.16536 -0.14469,-0.268709 -0.25837,-0.268709 -0.0517,0 -0.13436,0.02067 -0.24804,0.124019 l -2.00498,1.911968 v -3.524222 c 0,-0.299714 -0.16536,-0.341053 -0.26871,-0.341053 -0.10335,0 -0.26871,0.04134 -0.26871,0.341053 v 6.056287 c 0,0.268709 0.15502,0.320384 0.25837,0.320384 0.22737,0 0.27905,-0.175694 0.27905,-0.330719 v -1.870627 l 0.29971,-0.299714 2.44939,2.366706 c 0.062,0.05168 0.15502,0.124019 0.25837,0.124019 0.14469,0 0.24804,-0.144689 0.24804,-0.258374 z"
           style="text-align:end"
           id="path103" />
        <path
           d="m 139.72222,55.456135 c 0,0.14469 0.0827,0.279044 0.32038,0.279044 h 2.53207 c 0.2067,0 0.35139,-0.10335 0.35139,-0.258374 0,-0.186029 -0.13436,-0.289379 -0.35139,-0.289379 h -2.53207 c -0.26871,0 -0.32038,0.16536 -0.32038,0.268709 z m 1.75694,5.208821 h -0.29971 c -1.2402,0 -1.75694,-0.10335 -1.75694,-1.291871 V 56.717 c 0,-0.310048 -0.16536,-0.351388 -0.27905,-0.351388 -0.2067,0 -0.25837,0.155024 -0.25837,0.351388 v 2.66642 c 0,1.550245 0.86813,1.818954 2.29436,1.818954 h 0.29971 c 0.71312,0 1.35388,-0.2067 1.76728,-0.651103 v 0.351389 c 0,0.206699 0.062,0.372058 0.28938,0.372058 0.19636,0 0.24804,-0.155024 0.24804,-0.361723 V 56.717 c 0,-0.186029 -0.0517,-0.351388 -0.26871,-0.351388 -0.19636,0 -0.26871,0.124019 -0.26871,0.351388 v 2.108332 c 0,1.188521 -0.58909,1.839624 -1.76728,1.839624 z"
           style="text-align:end"
           id="path105" />
      </g>
      <g
         aria-label="序  破  急 "
         id="text62"
         style="font-size:7.0556px;line-height:1.25;fill:#ff0000">
        <path
           d="m 119.71752,64.926985 0.66146,-0.440975 h -2.42536 v -0.440975 h 2.97658 l 0.16536,-0.110244 0.38586,0.275609 q 0.11024,0.165366 -0.11025,0.137805 -0.44097,0.330731 -1.24024,0.799267 0.16537,0.08268 0.33073,0.192927 l -0.33073,0.358292 q -0.71658,-0.440975 -1.35049,-0.716584 l 0.27561,-0.358293 z m -3.00415,-1.874144 h 2.39781 v -0.716585 h 0.60634 q 0.27561,0.05512 0.0276,0.220488 v 0.496097 h 2.59073 v 0.523658 h -5.07122 v 2.563167 q 0,1.598534 -0.55122,2.370241 l -0.49609,-0.413414 q 0.49609,-0.551219 0.49609,-1.956827 z m 0.82683,3.252191 v -0.523658 h 4.21683 l 0.1378,-0.137805 0.44098,0.440975 q 0.0827,0.165366 -0.16537,0.137805 -0.60634,0.578779 -1.35049,1.157559 l -0.35829,-0.440975 q 0.4961,-0.30317 0.79927,-0.633901 h -1.13 v 1.819021 q 0,0.496097 -0.44097,0.496097 h -0.66147 l -0.0551,-0.523657 h 0.52366 q 0.0827,0 0.0827,-0.08268 v -1.708778 z"
           style="font-size:7.0556px;fill:#ff0000;stroke-width:0.26458"
           id="path108" />
        <path
           d="m 131.56872,66.911372 q 0.35829,-0.60634 0.52366,-1.433169 h -1.21268 q 0.11024,0.661463 0.68902,1.433169 z m 1.24024,-1.708778 q 0.11025,0.137805 -0.11024,0.165366 -0.30317,1.295364 -0.74415,1.929265 0.41342,0.330732 1.15756,0.633902 l -0.27561,0.551219 q -0.60634,-0.248049 -1.21268,-0.771707 -0.79927,0.661463 -1.54341,0.909511 l -0.27561,-0.523657 q 0.90951,-0.27561 1.43317,-0.771707 -0.60634,-0.799267 -0.85439,-1.846583 h -0.16537 v 0.771707 q 0,1.212681 -1.01975,2.232436 l -0.38585,-0.468536 q 0.85439,-0.744146 0.85439,-1.819022 V 63.32845 h 1.37804 v -0.964633 h 0.52366 q 0.22049,0.02756 0.0276,0.165366 v 0.799267 h 1.43317 l -0.1378,1.267803 -0.55122,-0.110243 0.11024,-0.633902 h -0.85439 v 1.18512 h 0.60634 l 0.0551,-0.137804 z m -4.6578,-1.708778 q 0,0.854389 -0.19292,1.378047 h 1.18512 v 2.590728 h -1.24024 v 0.661462 h -0.46854 v -2.177314 q -0.22049,0.27561 -0.38585,0.468536 l -0.30317,-0.468536 q 0.93707,-1.047315 0.90951,-2.452923 h -0.71659 v -0.523658 h 2.37024 v 0.523658 z m 0.52366,3.5278 v -1.708778 h -0.7717 v 1.708778 z m 2.37024,-1.984388 v -1.18512 h -0.82683 v 1.18512 z"
           style="font-size:7.0556px;fill:#ff0000;stroke-width:0.26458"
           id="path110" />
        <path
           d="m 142.34505,66.277471 v -0.165366 h -3.91366 V 65.67113 h 3.91366 v -0.496097 h -3.85853 v -0.440975 h 3.85853 V 64.2104 H 138.707 q -0.38585,0.358292 -0.88195,0.633902 l -0.30317,-0.523658 q 1.32293,-0.661463 1.87415,-2.011948 l 0.57878,0.110243 q 0.11024,0.110244 -0.0827,0.137805 l -0.0827,0.137805 h 1.65366 l 0.11024,-0.110244 0.35829,0.275609 q 0.27561,0.165366 -0.0276,0.192927 l -0.55122,0.716584 h 1.54342 v 2.508046 z m 0.38585,0.330731 q 0.71658,0.551219 1.13,1.322925 l -0.60634,0.330731 q -0.4961,-0.826828 -1.01976,-1.322925 z m -3.14195,-3.472678 q -0.19292,0.358292 -0.46853,0.633901 h 1.62609 l 0.4961,-0.633901 z m -2.06707,5.01609 q 0.46854,-0.771706 0.6339,-1.598534 l 0.63391,0.248048 q 0.24804,0.110244 -0.0276,0.220488 -0.16537,0.633902 -0.57878,1.405608 z m 2.23244,0.413414 q -0.4961,0 -0.4961,-0.468535 v -1.46073 l 0.52366,0.05512 q 0.22049,0.02756 0.0276,0.165365 v 0.964633 q 0,0.220488 0.19293,0.220488 h 1.48829 q 0.22049,0 0.27561,-0.27561 l 0.0827,-0.385853 0.60634,0.192927 -0.0551,0.30317 q -0.13781,0.689023 -0.6339,0.689023 z m 1.04731,-1.074876 q -0.33073,-0.606341 -0.66146,-0.909511 l 0.4961,-0.30317 q 0.41341,0.275609 0.74414,0.854389 z"
           style="font-size:7.0556px;fill:#ff0000;stroke-width:0.26458"
           id="path112" />
      </g>
    </g>
  </g>
</svg>
